<?xml version="1.0" encoding="utf-8"?>
<!-- Generator: Adobe Illustrator 27.8.0, SVG Export Plug-In . SVG Version: 6.00 Build 0)  -->
<svg version="1.1" id="Layer_1" xmlns="http://www.w3.org/2000/svg" xmlns:xlink="http://www.w3.org/1999/xlink" x="0px" y="0px"
	 viewBox="0 0 415 415" style="enable-background:new 0 0 415 415;" xml:space="preserve">
<style type="text/css">
	.st0{fill:#00B4D2;}
	.st1{fill:#141449;}
	.st2{fill:#FFFFFF;}
</style>
<g>
	<path class="st0" d="M377.2,81.7L377,31.8L207.9,7.5L38.5,32.1L38,81.4c-1.9,15.7-2.5,31.2-2.5,46.3v1.1
		c0,71.5,20.4,136.3,61.5,189.2c39.2,51,85,77.2,103.8,85.8c2.5,1.1,6.1,3,6.1,3l1.1,0.6l1.1-0.6c0,0,3.6-1.7,6.1-3
		c17.4-9.5,65.4-35.3,104.6-86.6c38.1-53,59.8-116.9,59.8-188.9C379.5,113.3,379,97.7,377.2,81.7z"/>
	<path class="st1" d="M42.7,83.4c-10.2,91.3,9.7,169.1,57.9,232.3c38.3,49.9,84.4,75.9,102.3,84.7c1.8,1,3.9,1.9,5,2.5
		c1.1-0.6,2.7-1.6,4.4-2.5c17.9-8.8,64-34.5,102.3-84.7c47.4-62.9,67-140.4,57.4-231.7c-9.7-4.1-76.7-31.7-164.7-32.3l0,0l0,0
		C119.4,51.9,52.3,79.2,42.7,83.4"/>
	<path class="st2" d="M231.4,216.9l-32-84.1l-32.6,84.1H231.4z M235.5,228.5h-73.7l-12.7,32.8c-3,8.3-4.7,14.1-4.7,18.2
		c0,3,1.1,5.8,4.1,8.3c3,2.5,8.3,4.1,17.4,4.7v5.8h-59.3v-5.8c7.7-1.7,13.2-3.6,14.9-5.8c4.7-4.7,9.7-14.6,15.7-29.8l66.5-171h4.7
		l67,172.7c5.5,14.1,10.2,22.9,14.3,27c4.1,4.1,10.2,6.3,17.9,7.2v5.8H233v-5.8c7.7-0.6,12.7-1.7,14.9-4.1c2.5-2.5,4.1-5.2,4.1-8.8
		c0-4.7-1.9-11.9-5.5-21.2L235.5,228.5z"/>
	<path class="st0" d="M265,85v70.6h-6.6c-2.5-13.5-6.1-24-11.3-32.3c-5.5-8.3-12.1-14.6-22.3-19.3s-19.3-4.7-26.5-4.7
		c-5.5,0-13.2,1.1-21.5,7.2c-8.3,5.8-12.7,13.5-12.7,21.8c0,6.3,2.5,11.9,7.7,17.1c7.7,7.7,15.7,13.5,43.3,28.1
		c22.9,12.4,41.9,19.9,50.5,25.1c8.6,5.2,14.9,11.9,19.3,19.3c4.1,7.7,6.6,15.2,6.6,23.4c0,15.2-7.2,28.7-21.5,40
		c-14.3,11-36.7,16.6-59.9,16.6c-7.2,0-14.9,0-20.4-0.6c-3.6-0.6-14.9-1.1-26.5-4.7c-12.1-3-17.4-4.7-20.4-4.7c-3,0-5.5,0.6-7.2,2.5
		c-1.7,1.9-3,4.1-3.6,7.7h-7.2v-69.8h6.6c3,14.6,7.2,25.1,12.7,32.8c5.5,7.7,11.3,13.5,22.9,18.2c10.8,4.7,26.5,7.2,39.7,7.2
		c14.9,0,30.6-3.6,39.2-9.9c8.3-6.3,13.2-14.6,13.2-23.4c0-4.7-1.9-9.9-4.7-15.2c-3-5.2-8.3-9.9-15.7-14.1
		c-4.7-3-22.3-9.9-41.9-21.2c-20.4-11-25.1-15.7-34.2-21.8c-9.1-5.8-15.7-12.4-20.4-19.3c-4.7-7.2-6.6-14.6-6.6-22.9
		c0-14.6,6.6-27,20.4-37.5c13.8-10.5,32.6-14.1,41.4-14.1c13.2,0,21.5,0.6,36.7,6.3c6.6,2.5,9.7,3.6,12.7,3.6c3,0,6.1-0.6,7.7-2.5
		c1.9-1.7,3.6-4.7,4.7-9.4L265,85L265,85z"/>
	<path class="st2" d="M203.8,85.8c0.3-0.8,1.1-1.9,2.4-1.9c1.3,0,2.1,1.2,2.3,1.9l5.8,15c0.5,1.4-0.1,2.9-2.5,2.9h-12.4
		c-1.7-0.6-1.7-1.7-1-4.1L203.8,85.8z"/>
	<path class="st2" d="M289.5,285.3c4.4,4.4,10.5,6.7,18.2,7.5v5.8l-74.8,0v-5.8c7.7-0.6,12.7-1.7,14.9-4.1c2.5-2.5,4.1-5.2,4.1-8.8
		c0-4.7-1.9-11.9-5.5-21.2l-11-30.1l3.3-4.4c9.4,4.4,31.3,20.6,36.7,34.5C275.5,258.5,282.1,276.8,289.5,285.3z"/>
	<g>
		<path class="st2" d="M65.3,44.2l2.2,6.8L67,51.2c-1-1.6-2.2-2.8-3.7-3.3c-1.5-0.6-2.9-0.6-4.4-0.1c-1.2,0.4-2.2,1.1-3,2.2
			c-0.8,1-1.3,2.2-1.4,3.5c-0.1,1.7,0.1,3.4,0.7,5.2c0.6,1.8,1.3,3.3,2.2,4.6c0.9,1.3,2,2.2,3.2,2.6c1.2,0.4,2.5,0.4,4.1-0.1
			c1.2-0.4,2.3-1,3.2-1.9c0.9-0.9,1.6-2.2,2.4-3.9l0.5,1.7c-0.7,1.5-1.6,2.7-2.6,3.6c-1,0.9-2.3,1.6-3.9,2.1c-2.1,0.7-4.1,0.9-6,0.5
			c-1.9-0.3-3.6-1.1-5-2.4s-2.4-2.8-3-4.6c-0.6-1.9-0.7-3.8-0.3-5.8c0.4-2,1.3-3.7,2.7-5.2c1.4-1.5,3-2.5,4.9-3.1
			c1.4-0.4,3-0.6,4.7-0.5c1,0.1,1.6,0.1,1.9,0c0.3-0.1,0.5-0.3,0.7-0.6c0.2-0.3,0.2-0.7,0.1-1.2L65.3,44.2z"/>
		<path class="st2" d="M79.2,52.1l1.6,6.2c0.3,1,0.5,1.7,0.7,1.9c0.2,0.2,0.5,0.4,0.8,0.5c0.4,0.1,0.9,0.1,1.4-0.1l0.7-0.2l0.1,0.5
			L74,63.8l-0.1-0.5l0.7-0.2c0.6-0.1,1-0.4,1.3-0.7c0.2-0.2,0.4-0.5,0.4-0.9c0-0.3-0.1-0.9-0.3-1.9l-3.4-13.2
			c-0.3-1-0.5-1.7-0.7-1.9c-0.2-0.2-0.5-0.4-0.8-0.5c-0.4-0.1-0.9-0.1-1.4,0.1L69,44.2l-0.1-0.5L79.4,41l0.1,0.5l-0.7,0.2
			c-0.6,0.1-1,0.4-1.3,0.7c-0.2,0.2-0.4,0.5-0.4,0.9c0,0.3,0.1,0.9,0.3,1.9l1.4,5.7l7.1-1.8l-1.4-5.7c-0.3-1-0.5-1.7-0.7-1.9
			c-0.2-0.2-0.5-0.4-0.8-0.5c-0.4-0.1-0.9-0.1-1.4,0.1l-0.7,0.2l-0.1-0.5L91.3,38l0.1,0.5l-0.7,0.2c-0.6,0.2-1,0.4-1.3,0.7
			c-0.2,0.2-0.4,0.5-0.4,0.9c0,0.3,0.1,0.9,0.3,1.9l3.4,13.2c0.3,1,0.5,1.7,0.7,1.9c0.2,0.2,0.5,0.4,0.8,0.5
			c0.4,0.1,0.9,0.1,1.4-0.1l0.7-0.2l0.1,0.5l-10.5,2.7l-0.1-0.5l0.7-0.2c0.6-0.2,1-0.4,1.3-0.7c0.2-0.2,0.4-0.5,0.4-0.9
			c0-0.3-0.1-0.9-0.3-1.9l-1.6-6.2L79.2,52.1z"/>
		<path class="st2" d="M108.5,49.5l-7.2,1.5l-0.4,2.2c-0.1,0.7-0.2,1.3-0.1,1.7c0.1,0.6,0.4,0.9,1,1.1c0.3,0.1,1,0.1,2.1-0.1
			l0.1,0.6l-6.8,1.4L97,57.4c0.7-0.3,1.2-0.7,1.6-1.3c0.4-0.6,0.7-1.7,1.1-3.4l3.9-17.7l0.3-0.1L114.7,50c1,1.4,1.8,2.3,2.3,2.6
			c0.4,0.2,0.9,0.3,1.6,0.2l0.1,0.6l-9.8,2.1l-0.1-0.6l0.4-0.1c0.8-0.2,1.3-0.4,1.6-0.7c0.2-0.2,0.2-0.5,0.2-0.8
			c0-0.2-0.1-0.4-0.2-0.5c0-0.1-0.3-0.4-0.7-1L108.5,49.5z M107.7,48.5l-4.5-6.4l-1.6,7.6L107.7,48.5z"/>
		<path class="st2" d="M130.3,50.8l0.1,0.6l-10.7,1.9l-0.1-0.6l0.7-0.1c0.6-0.1,1-0.3,1.4-0.6c0.2-0.2,0.4-0.5,0.5-0.8
			c0.1-0.3,0-0.9-0.2-1.9l-2.5-13.4c-0.2-1-0.4-1.7-0.5-1.9c-0.2-0.2-0.4-0.4-0.8-0.6c-0.4-0.1-0.8-0.1-1.4,0l-0.7,0.1l-0.1-0.6
			l10.7-1.9l0.1,0.6l-0.7,0.1c-0.6,0.1-1,0.3-1.4,0.6c-0.2,0.2-0.4,0.5-0.5,0.8c-0.1,0.3,0,0.9,0.2,1.9l2.5,13.4
			c0.2,1,0.4,1.7,0.5,1.9c0.2,0.2,0.4,0.4,0.8,0.6c0.4,0.1,0.8,0.1,1.4,0L130.3,50.8z"/>
		<path class="st2" d="M135.6,29.5l12.1,11.1l-1.4-8.8c-0.2-1.2-0.5-2-0.9-2.4c-0.6-0.5-1.4-0.7-2.6-0.5l-0.1-0.6l6.8-1.1l0.1,0.6
			c-0.8,0.2-1.4,0.5-1.7,0.7c-0.3,0.2-0.5,0.5-0.6,1c-0.1,0.4-0.1,1.1,0.1,2.1l2.7,17.1l-0.5,0.1L133,33.8l2,13
			c0.2,1.2,0.6,1.9,1.2,2.3c0.6,0.3,1.3,0.4,1.9,0.3l0.5-0.1l0.1,0.6l-7.3,1.1l-0.1-0.6c1.1-0.2,1.9-0.5,2.2-1.1
			c0.4-0.5,0.5-1.3,0.3-2.4l-2.3-14.5l-0.5-0.5c-0.5-0.5-1-0.8-1.3-0.9c-0.4-0.1-0.9-0.1-1.5-0.1l-0.1-0.6L135.6,29.5z"/>
		<path class="st2" d="M171.1,24.4c3.3-0.5,6,0.2,8.3,2s3.6,4.3,3.9,7.3c0.3,2.6-0.2,5-1.6,7.1c-1.8,2.9-4.5,4.5-8.2,4.9
			c-3.7,0.4-6.7-0.6-9-2.9c-1.8-1.8-2.9-4.1-3.1-6.8c-0.3-3.1,0.5-5.7,2.3-8S168,24.6,171.1,24.4z M171.4,25.3
			c-1.9,0.2-3.2,1.3-4,3.3c-0.6,1.7-0.8,4-0.5,6.9c0.4,3.5,1.3,6.1,2.7,7.6c1,1.1,2.3,1.5,3.8,1.4c1-0.1,1.9-0.5,2.5-1
			c0.8-0.7,1.4-1.9,1.8-3.3s0.4-3.4,0.2-5.7c-0.3-2.7-0.8-4.7-1.4-6c-0.6-1.3-1.4-2.2-2.2-2.7C173.3,25.4,172.4,25.2,171.4,25.3z"/>
		<path class="st2" d="M193,24.1l0.4,8.5l0.6,0c0.9,0,1.7-0.2,2.2-0.5c0.6-0.3,1-0.8,1.4-1.5c0.4-0.7,0.6-1.6,0.7-2.7l0.5,0
			l0.5,10.4l-0.5,0c-0.3-2-0.9-3.2-1.8-3.8c-0.9-0.6-1.9-0.8-3-0.8l-0.6,0l0.3,6.3c0.1,1.1,0.1,1.7,0.3,2c0.1,0.3,0.4,0.5,0.7,0.7
			c0.4,0.2,0.8,0.3,1.4,0.2l0.7,0l0,0.6L186.1,44l0-0.6l0.7,0c0.6,0,1.1-0.2,1.4-0.4c0.3-0.2,0.4-0.4,0.6-0.8
			c0.1-0.3,0.1-0.9,0.1-1.9l-0.7-13.6c-0.1-1.1-0.1-1.7-0.3-2c-0.1-0.3-0.4-0.5-0.7-0.7c-0.4-0.2-0.8-0.3-1.4-0.2l-0.7,0l0-0.6
			l17.5-0.9l0.3,5.9l-0.6,0c-0.2-1.4-0.6-2.4-1.3-3c-0.6-0.6-1.5-1.1-2.6-1.3c-0.6-0.1-1.8-0.1-3.4-0.1L193,24.1z"/>
		<path class="st2" d="M232.8,22.8l-0.3,7.2l-0.6,0c-0.4-1.9-1.1-3.4-2.3-4.4c-1.2-1.1-2.5-1.6-4.1-1.7c-1.3-0.1-2.5,0.3-3.6,0.9
			c-1.1,0.7-2,1.6-2.5,2.8c-0.7,1.5-1.1,3.2-1.2,5.1c-0.1,1.9,0.1,3.6,0.5,5.1c0.4,1.5,1.1,2.7,2,3.6c1,0.8,2.2,1.3,3.8,1.3
			c1.3,0.1,2.5-0.2,3.6-0.7c1.1-0.5,2.3-1.4,3.6-2.8l-0.1,1.8c-1.2,1.2-2.5,2-3.8,2.5c-1.3,0.5-2.8,0.7-4.4,0.6
			c-2.2-0.1-4.2-0.6-5.8-1.6c-1.7-1-2.9-2.3-3.8-4c-0.9-1.7-1.2-3.5-1.2-5.4c0.1-2,0.7-3.8,1.8-5.6s2.6-3,4.4-3.9
			c1.8-0.9,3.7-1.3,5.7-1.2c1.5,0.1,3,0.5,4.6,1.2c0.9,0.4,1.5,0.6,1.8,0.6c0.3,0,0.6-0.1,0.9-0.3c0.2-0.2,0.4-0.6,0.5-1.1
			L232.8,22.8z"/>
		<path class="st2" d="M236.3,23.5l10.7,1.1l-0.1,0.6l-0.5-0.1c-0.8-0.1-1.4-0.1-1.7,0.1c-0.3,0.1-0.6,0.3-0.7,0.6
			c-0.2,0.3-0.3,1-0.4,2.2l-1,10.1c-0.2,1.8-0.2,3.1,0,3.7c0.2,0.6,0.6,1.2,1.2,1.6c0.6,0.5,1.4,0.7,2.4,0.8c1.1,0.1,2.1,0,2.9-0.5
			c0.8-0.4,1.5-1.1,2-1.9c0.5-0.8,0.8-2.4,1.1-4.6L253,29c0.1-0.9,0.1-1.6-0.1-2c-0.2-0.4-0.4-0.7-0.6-0.9c-0.4-0.3-1.1-0.5-1.9-0.5
			l0.1-0.6l7.1,0.7l-0.1,0.6l-0.4,0c-0.6-0.1-1.1,0-1.5,0.2s-0.7,0.5-0.9,1c-0.2,0.3-0.3,0.9-0.4,1.7l-0.8,7.8
			c-0.2,2.4-0.6,4.2-1,5.2c-0.4,1-1.3,2-2.6,2.7c-1.3,0.8-3.1,1.1-5.2,0.8c-1.8-0.2-3.1-0.6-4.1-1.1c-1.3-0.8-2.1-1.7-2.6-2.8
			c-0.4-1.1-0.6-2.5-0.4-4.2l1-10.1c0.1-1.2,0.1-1.9,0-2.2c-0.1-0.3-0.3-0.6-0.6-0.8c-0.3-0.2-0.9-0.3-1.8-0.4L236.3,23.5z"/>
		<path class="st2" d="M273.8,27.7l-1.2,6.8l-0.6-0.1c0-1.8-0.6-3.2-1.6-4.5s-2.2-1.9-3.5-2.1c-1-0.1-1.9,0-2.6,0.5
			c-0.7,0.5-1.1,1.1-1.2,1.8c-0.1,0.5,0,0.9,0.1,1.3c0.2,0.5,0.6,1.1,1.2,1.6c0.4,0.4,1.4,1.2,3,2.2c2.2,1.5,3.7,2.9,4.4,4
			c0.7,1.2,0.9,2.4,0.7,3.8c-0.2,1.7-1.1,3.1-2.6,4.1c-1.5,1-3.3,1.4-5.4,1.1c-0.6-0.1-1.2-0.2-1.8-0.5c-0.6-0.2-1.2-0.6-2.1-1.1
			c-0.5-0.3-0.8-0.4-1.2-0.5c-0.3,0-0.6,0-0.9,0.2c-0.3,0.2-0.6,0.4-0.8,0.8l-0.6-0.1l1.1-7.8l0.6,0.1c0.1,2.2,0.7,4,1.8,5.4
			c1.1,1.3,2.4,2.1,3.8,2.3c1.1,0.2,2.1,0,2.8-0.5c0.8-0.5,1.2-1.2,1.3-2c0.1-0.5,0-1-0.2-1.5c-0.2-0.5-0.5-1-1-1.5
			c-0.5-0.5-1.3-1.2-2.6-2c-1.7-1.2-3-2.2-3.7-2.9c-0.7-0.8-1.2-1.6-1.6-2.4c-0.3-0.9-0.4-1.8-0.3-2.7c0.2-1.6,1-2.9,2.4-3.9
			c1.4-1,3-1.3,4.8-1.1c0.7,0.1,1.3,0.3,1.9,0.5c0.5,0.2,1,0.5,1.6,0.9c0.6,0.4,1.1,0.7,1.4,0.7c0.3,0,0.5,0,0.7-0.2
			c0.2-0.1,0.6-0.5,0.8-1.1L273.8,27.7z"/>
		<path class="st2" d="M296.3,32.1l-1,5.5l-0.5-0.1c-0.1-1.3-0.3-2.3-0.6-2.9s-0.7-1.2-1.4-1.6c-0.3-0.3-1-0.5-2-0.6l-1.5-0.3
			l-2.9,15.7c-0.2,1-0.3,1.7-0.2,2s0.3,0.6,0.6,0.8c0.3,0.3,0.7,0.4,1.3,0.5l0.7,0.1l-0.1,0.6l-10.7-2l0.1-0.6l0.7,0.1
			c0.6,0.1,1.1,0.1,1.5-0.1c0.3-0.1,0.5-0.3,0.8-0.6c0.2-0.2,0.3-0.8,0.5-1.9l2.9-15.7l-1.5-0.3c-1.4-0.3-2.4-0.1-3.2,0.3
			c-1,0.7-1.8,1.7-2.3,3.2l-0.6-0.1l1-5.5L296.3,32.1z"/>
		<path class="st2" d="M309.5,34.7c3.2,0.6,5.6,2.2,7.2,4.6c1.6,2.5,2,5.2,1.3,8.2c-0.6,2.6-1.9,4.6-3.8,6.2
			c-2.6,2.1-5.7,2.8-9.3,1.9c-3.6-0.8-6.2-2.7-7.6-5.6c-1.1-2.3-1.4-4.8-0.8-7.5c0.7-3,2.3-5.3,4.8-6.8
			C303.9,34.3,306.6,33.9,309.5,34.7z M309.5,35.7c-1.8-0.4-3.5,0.2-4.9,1.9c-1.1,1.4-2,3.5-2.7,6.4c-0.8,3.4-0.8,6.1,0.1,8.1
			c0.6,1.3,1.6,2.2,3.1,2.5c1,0.2,1.9,0.2,2.7-0.2c1-0.4,1.9-1.3,2.7-2.6s1.5-3,2-5.3c0.6-2.7,0.8-4.7,0.6-6.2
			c-0.2-1.4-0.6-2.5-1.3-3.2C311.3,36.5,310.5,36,309.5,35.7z"/>
		<path class="st2" d="M317.1,58.1l0.2-0.5l0.7,0.2c0.6,0.2,1,0.2,1.4,0.1c0.4-0.1,0.7-0.3,0.9-0.5c0.1-0.2,0.4-0.8,0.7-1.8
			l3.8-13.1c0.3-1,0.4-1.7,0.4-2c0-0.3-0.2-0.6-0.5-0.9c-0.3-0.3-0.7-0.5-1.2-0.7l-0.7-0.2l0.2-0.5l8.9,2.6c2.4,0.7,4.2,1.6,5.5,2.6
			c1.5,1.3,2.5,2.9,3,4.8s0.4,3.8-0.2,5.8c-0.4,1.4-1,2.6-1.8,3.7c-0.8,1.1-1.7,1.9-2.6,2.4c-0.9,0.6-1.9,0.9-3,1.1
			c-1.1,0.2-2.3,0.2-3.7,0.1c-0.6-0.1-1.6-0.3-2.9-0.6L317.1,58.1z M330.1,41.5L325.6,57c-0.2,0.8-0.3,1.3-0.3,1.5
			c0,0.2,0.1,0.4,0.3,0.5c0.2,0.2,0.6,0.4,1.1,0.6c1.6,0.5,3,0.3,4.2-0.6c1.6-1.2,2.9-3.3,3.8-6.5c0.7-2.6,0.9-4.7,0.6-6.5
			c-0.3-1.4-0.9-2.4-1.8-3.1C332.9,42.4,331.7,41.9,330.1,41.5z"/>
		<path class="st2" d="M366.2,52.1l-0.2,0.5c-0.7-0.1-1.2-0.1-1.7,0c-0.6,0.2-1.8,1.1-3.5,2.5l-6.8,5.6l-1.7,4.7
			c-0.4,1-0.5,1.7-0.5,1.9c0,0.3,0.1,0.6,0.4,0.9c0.2,0.3,0.6,0.5,1.1,0.7l1.1,0.4l-0.2,0.5l-11-3.9l0.2-0.5l1,0.4
			c0.6,0.2,1.1,0.3,1.5,0.2c0.3,0,0.6-0.2,0.8-0.5c0.2-0.2,0.5-0.8,0.8-1.8l1.4-3.9l-1.6-10c-0.3-2-0.6-3.2-0.9-3.6
			c-0.3-0.4-0.7-0.8-1.3-1l0.2-0.5l9.4,3.3l-0.2,0.5l-0.4-0.1c-0.6-0.2-1-0.3-1.3-0.2c-0.3,0.1-0.5,0.2-0.5,0.4
			c-0.1,0.3,0,1.4,0.2,3l1.2,7.7l5.6-4.6c1.4-1.1,2.2-1.9,2.3-2.4c0.1-0.3,0-0.5-0.1-0.8c-0.2-0.4-0.8-0.7-1.6-1.1l0.2-0.5
			L366.2,52.1z"/>
	</g>
</g>
</svg>
